# Created by Open3D 
# object name: model
# number of vertices: 97
# number of triangles: 109
v -372064 -2.13798e+06 79456 0 0 0
vn 0 0 -1
v -723600 -1.96066e+06 79456 0 0 0
vn 0 0 -1
v -372064 -1.85816e+06 79456 0 0 0
vn 0 0 -1
v 373792 -1.96066e+06 79456 0 0 0
vn 0 0 -1
v -4.32253e+06 -7.49134e+06 -30672 0 0 0
vn 0 0 -1
v 1.99822e+06 1.98981e+06 32144 0 0 0
vn 0 0 -1
v -3.53243e+06 -7.49134e+06 -31776 0 0 0
vn 0 0 -1
v 2.78832e+06 1.98981e+06 -41312 0 0 0
vn 0 0 -1
v -372064 1.98981e+06 10000 0 0 0
vn 0 0 -1
v -4.32253e+06 -6.70124e+06 -37024 0 0 0
vn 0 0 -1
v 418032 1.98981e+06 65824 0 0 0
vn 0 0 -1
v -3.53243e+06 -6.70124e+06 -35360 0 0 0
vn 0 0 -1
v 418032 2.7799e+06 -33808 0 0 0
vn 0 0 -1
v 1.20813e+06 2.7799e+06 -576 0 0 0
vn 0 0 -1
v -3.53243e+06 -5.91114e+06 -43968 0 0 0
vn 0 0 -1
v 418032 3.57e+06 16 0 0 0
vn 0 0 -1
v 1.20813e+06 3.57e+06 -19280 0 0 0
vn 0 0 -1
v 1.99822e+06 2.7799e+06 -8448 0 0 0
vn 0 0 -1
v 2.78832e+06 2.7799e+06 -32768 0 0 0
vn 0 0 -1
v 1.99822e+06 3.57e+06 -38656 0 0 0
vn 0 0 -1
v -2.74234e+06 -7.49134e+06 -46480 0 0 0
vn 0 0 -1
v 2.78832e+06 3.57e+06 -42912 0 0 0
vn 0 0 -1
v -1.95224e+06 -7.49134e+06 -37552 0 0 0
vn 0 0 -1
v -2.74234e+06 -6.70124e+06 -31632 0 0 0
vn 0 0 -1
v -1.95224e+06 -6.70124e+06 -29248 0 0 0
vn 0 0 -1
v -2.74234e+06 -5.91114e+06 -24832 0 0 0
vn 0 0 -1
v -1.95224e+06 -5.91114e+06 -26992 0 0 0
vn 0 0 -1
v -1.16216e+06 -7.49134e+06 -36080 0 0 0
vn 0 0 -1
v -1.16216e+06 -6.70124e+06 -24208 0 0 0
vn 0 0 -1
v -372064 -7.49134e+06 -40432 0 0 0
vn 0 0 -1
v -372064 -6.70124e+06 -34080 0 0 0
vn 0 0 -1
v -1.16216e+06 -5.91114e+06 -11680 0 0 0
vn 0 0 -1
v -372064 -5.91114e+06 -32032 0 0 0
vn 0 0 -1
v 418032 4.3601e+06 -42096 0 0 0
vn 0 0 -1
v 1.20813e+06 4.3601e+06 -23968 0 0 0
vn 0 0 -1
v 418032 5.15019e+06 -20576 0 0 0
vn 0 0 -1
v 1.20813e+06 5.15019e+06 -44416 0 0 0
vn 0 0 -1
v 418032 5.94029e+06 -25488 0 0 0
vn 0 0 -1
v 1.20813e+06 5.94029e+06 -13984 0 0 0
vn 0 0 -1
v 418032 6.73038e+06 -22624 0 0 0
vn 0 0 -1
v 1.20813e+06 6.73038e+06 -34480 0 0 0
vn 0 0 -1
v -4.32253e+06 -5.12105e+06 -39904 0 0 0
vn 0 0 -1
v -3.53243e+06 -5.12105e+06 -20992 0 0 0
vn 0 0 -1
v -4.32253e+06 -4.33095e+06 -39088 0 0 0
vn 0 0 -1
v -3.53243e+06 -4.33095e+06 -16208 0 0 0
vn 0 0 -1
v -4.32253e+06 -3.54086e+06 -35072 0 0 0
vn 0 0 -1
v -3.53243e+06 -3.54086e+06 -27488 0 0 0
vn 0 0 -1
v -4.32253e+06 -2.75076e+06 -46304 0 0 0
vn 0 0 -1
v -3.53243e+06 -2.75076e+06 -33040 0 0 0
vn 0 0 -1
v -2.74234e+06 -5.12105e+06 -28144 0 0 0
vn 0 0 -1
v -1.95224e+06 -5.12105e+06 -21168 0 0 0
vn 0 0 -1
v -2.74234e+06 -4.33095e+06 -21392 0 0 0
vn 0 0 -1
v -1.95224e+06 -4.33095e+06 -27040 0 0 0
vn 0 0 -1
v -1.16216e+06 -5.12105e+06 -27568 0 0 0
vn 0 0 -1
v -372064 -5.12105e+06 -33696 0 0 0
vn 0 0 -1
v -1.16216e+06 -4.33095e+06 -27888 0 0 0
vn 0 0 -1
v -372064 -4.33095e+06 -41520 0 0 0
vn 0 0 -1
v -2.74234e+06 -3.54086e+06 -17696 0 0 0
vn 0 0 -1
v -1.95224e+06 -3.54086e+06 -34880 0 0 0
vn 0 0 -1
v 1.20813e+06 7.52048e+06 -28592 0 0 0
vn 0 0 -1
v -1.95224e+06 -2.75076e+06 5056 0 0 0
vn 0 0 -1
v -1.16216e+06 -3.54086e+06 -13088 0 0 0
vn 0 0 -1
v -372064 -3.54086e+06 6912 0 0 0
vn 0 0 -1
v -1.16216e+06 -2.75076e+06 -34320 0 0 0
vn 0 0 -1
v -3.53243e+06 -1.96066e+06 -36288 0 0 0
vn 0 0 -1
v -2.74234e+06 -1.96066e+06 -31072 0 0 0
vn 0 0 -1
v -1.95224e+06 -1.96066e+06 8928 0 0 0
vn 0 0 -1
v -2.74234e+06 -1.17058e+06 -18192 0 0 0
vn 0 0 -1
v -1.95224e+06 -1.17058e+06 -17792 0 0 0
vn 0 0 -1
v -1.16216e+06 -1.17058e+06 51792 0 0 0
vn 0 0 -1
v -372064 -1.17058e+06 -20288 0 0 0
vn 0 0 -1
v -1.95224e+06 -380480 -17136 0 0 0
vn 0 0 -1
v -1.16216e+06 -380480 -20352 0 0 0
vn 0 0 -1
v -372064 -380480 48448 0 0 0
vn 0 0 -1
v -372064 409616 25296 0 0 0
vn 0 0 -1
v 418032 -4.33095e+06 -38048 0 0 0
vn 0 0 -1
v 418032 -3.54086e+06 -37552 0 0 0
vn 0 0 -1
v 418032 -2.75076e+06 3344 0 0 0
vn 0 0 -1
v 1.20813e+06 -2.75076e+06 -20688 0 0 0
vn 0 0 -1
v 418032 -1.96066e+06 16384 0 0 0
vn 0 0 -1
v 1.20813e+06 -1.96066e+06 62864 0 0 0
vn 0 0 -1
v 418032 -380480 58480 0 0 0
vn 0 0 -1
v 418032 409616 50064 0 0 0
vn 0 0 -1
v 418032 1.19971e+06 2352 0 0 0
vn 0 0 -1
v -9.8532e+06 -9.07153e+06 -44896 0 0 0
vn 0 0 -1
v -8.27301e+06 -9.07153e+06 -33776 0 0 0
vn 0 0 -1
v -6.69282e+06 -9.07153e+06 -40160 0 0 0
vn 0 0 -1
v -9.8532e+06 -5.91114e+06 -42544 0 0 0
vn 0 0 -1
v -8.27301e+06 -7.49134e+06 -28944 0 0 0
vn 0 0 -1
v -6.69282e+06 -7.49134e+06 -23296 0 0 0
vn 0 0 -1
v -8.27301e+06 -5.91114e+06 -41904 0 0 0
vn 0 0 -1
v -6.69282e+06 -5.91114e+06 -34960 0 0 0
vn 0 0 -1
v 2.78832e+06 -2.75076e+06 -5280 0 0 0
vn 0 0 -1
v 7.5289e+06 -2.75076e+06 -43424 0 0 0
vn 0 0 -1
v 9.10909e+06 -2.75076e+06 -14912 0 0 0
vn 0 0 -1
v 9.10909e+06 -1.17058e+06 -39760 0 0 0
vn 0 0 -1
v -372064 -1.96066e+06 143712 0 0 0
vn 0 0 -1
f 12//12 5//5 10//10
f 7//7 5//5 12//12
f 12//12 10//10 15//15
f 21//21 7//7 12//12
f 12//12 24//24 21//21
f 23//23 21//21 24//24
f 24//24 25//25 23//23
f 26//26 12//12 15//15
f 24//24 12//12 26//26
f 25//25 24//24 26//26
f 26//26 27//27 25//25
f 29//29 23//23 25//25
f 28//28 23//23 29//29
f 31//31 28//28 29//29
f 30//30 28//28 31//31
f 32//32 25//25 27//27
f 29//29 25//25 32//32
f 33//33 29//29 32//32
f 31//31 29//29 33//33
f 45//45 42//42 44//44
f 43//43 42//42 45//45
f 45//45 44//44 46//46
f 46//46 47//47 45//45
f 49//49 46//46 48//48
f 47//47 46//46 49//49
f 26//26 15//15 43//43
f 43//43 50//50 26//26
f 51//51 26//26 50//50
f 27//27 26//26 51//51
f 50//50 43//43 45//45
f 45//45 52//52 50//50
f 51//51 50//50 52//52
f 52//52 53//53 51//51
f 32//32 27//27 51//51
f 51//51 54//54 32//32
f 33//33 32//32 54//54
f 54//54 55//55 33//33
f 54//54 51//51 53//53
f 53//53 56//56 54//54
f 57//57 54//54 56//56
f 55//55 54//54 57//57
f 58//58 45//45 47//47
f 52//52 45//45 58//58
f 59//59 52//52 58//58
f 53//53 52//52 59//59
f 59//59 58//58 61//61
f 62//62 53//53 59//59
f 56//56 53//53 62//62
f 63//63 56//56 62//62
f 57//57 56//56 63//63
f 64//64 59//59 61//61
f 62//62 59//59 64//64
f 63//63 62//62 64//64
f 49//49 48//48 65//65
f 66//66 67//67 61//61
f 66//66 65//65 68//68
f 67//67 66//66 68//68
f 68//68 69//69 67//67
f 70//70 67//67 69//69
f 3//3 2//2 71//71
f 2//2 70//70 71//71
f 69//69 68//68 72//72
f 70//70 69//69 72//72
f 72//72 73//73 70//70
f 71//71 70//70 73//73
f 73//73 74//74 71//71
f 74//74 73//73 75//75
f 77//77 57//57 63//63
f 76//76 57//57 77//77
f 77//77 63//63 78//78
f 79//79 77//77 78//78
f 1//1 4//4 78//78
f 4//4 80//80 78//78
f 81//81 78//78 80//80
f 79//79 78//78 81//81
f 83//83 74//74 75//75
f 82//82 74//74 83//83
f 83//83 75//75 84//84
f 9//9 11//11 84//84
f 86//86 85//85 89//89
f 87//87 86//86 89//89
f 89//89 90//90 87//87
f 88//88 91//91 89//89
f 92//92 89//89 91//91
f 90//90 89//89 92//92
f 93//93 79//79 81//81
f 95//95 94//94 96//96
f 97//97 1//1 2//2
f 97//97 2//2 3//3
f 4//4 1//1 97//97
f 3//3 4//4 97//97
f 14//14 13//13 16//16
f 16//16 17//17 14//14
f 14//14 18//18 6//6
f 8//8 6//6 18//18
f 18//18 19//19 8//8
f 20//20 14//14 17//17
f 18//18 14//14 20//20
f 19//19 18//18 20//20
f 20//20 22//22 19//19
f 17//17 16//16 34//34
f 34//34 35//35 17//17
f 37//37 34//34 36//36
f 35//35 34//34 37//37
f 37//37 36//36 38//38
f 38//38 39//39 37//37
f 41//41 38//38 40//40
f 39//39 38//38 41//41
f 41//41 40//40 60//60
